<?xml version="1.0" encoding="utf-8"?>
<!-- Generator: Adobe Illustrator 23.1.0, SVG Export Plug-In . SVG Version: 6.00 Build 0)  -->
<svg version="1.1" id="Layer_1" xmlns="http://www.w3.org/2000/svg" xmlns:xlink="http://www.w3.org/1999/xlink" x="0px" y="0px"
	 viewBox="0 0 215.5 69.2" style="enable-background:new 0 0 215.5 69.2;" xml:space="preserve">
<style type="text/css">
	.st0{display:none;}
	.st1{fill:#FC4259;}
	.st2{fill:#F82647;}
	.st3{enable-background:new    ;}
	.st4{fill:#FFFFFF;}
	.st5{fill:url(#SVGID_1_);}
	.st6{fill:url(#SVGID_2_);}
	.st7{fill:url(#SVGID_3_);}
	.st8{fill:url(#SVGID_4_);}
</style>
<g id="Layer_6" class="st0">
</g>
<g id="Layer_9">
</g>
<g id="Layer_4">
</g>
<g id="Layer_3">
</g>
<g>
	<g>
		<g>
			<g>
				<path class="st1" d="M273.7,84c-5.8-11.1-19.3-16-30.9-11.2c-13,5.4-18.6,20.5-12.5,33c0.2,0.4,0.4,0.9,0.7,1.3l3,6.2
					c1.1,2.2,3.3,3.6,5.8,3.6h16.6c1.2,0,1.9,1.2,1.4,2.3l-1.1,2.3c-0.1,0-0.1,0-0.2,0c-1.3,0-2.5,1.1-2.6,2.4c0,0.5,0.1,1,0.3,1.3
					c0.3,0.5,0.3,1,0.1,1.5l-0.9,1.9c-0.3,0.6-0.8,0.9-1.4,0.9h-7.6c-1.2,0-2,1.2-1.4,2.3l3.4,7c1.9,4,7.6,4.1,9.7,0.2l16.4-30.6
					C277.1,101.3,277.9,92.1,273.7,84z M252,106.4c-6.5,0-11.8-5.3-11.8-11.8s5.3-11.8,11.8-11.8s11.8,5.3,11.8,11.8
					S258.6,106.4,252,106.4z"/>
			</g>
			<g>
				<path class="st2" d="M292.2,6.2c-5.8-11.1-19.3-16-30.9-11.2c-13,5.4-18.6,20.5-12.5,33c0.2,0.4,0.4,0.9,0.7,1.3l3,6.2
					c1.1,2.2,3.3,3.6,5.8,3.6h16.6c1.2,0,1.9,1.2,1.4,2.3l-1.1,2.3c-0.1,0-0.1,0-0.2,0c-1.3,0-2.5,1.1-2.6,2.4c0,0.5,0.1,1,0.3,1.3
					c0.3,0.5,0.3,1,0.1,1.5l-0.9,1.9c-0.3,0.6-0.8,0.9-1.4,0.9h-7.6c-1.2,0-2,1.2-1.4,2.3l3.4,7c1.9,4,7.6,4.1,9.7,0.2L291,30.6
					C295.6,23.5,296.4,14.3,292.2,6.2z M270.5,28.6c-6.5,0-11.8-5.3-11.8-11.8S264,5,270.5,5s11.8,5.3,11.8,11.8
					S277.1,28.6,270.5,28.6z"/>
			</g>
		</g>
	</g>
</g>
<g id="Layer_5">
</g>
<g id="Layer_7">
</g>
<g id="Layer_8">
</g>
<g>
	<g class="st3">
		<path class="st4" d="M27.2,61.5v3.4c-2,0.9-4.5,1.3-7.3,1.3c-4.9,0-8.2-3.4-8.2-8.4V38.7H6.4v-3.4h5.3v-8.9h4.1v8.9h11v3.4h-11V57
			c0,3.3,2.2,5.6,5.3,5.6C23.2,62.6,25.3,62.2,27.2,61.5z"/>
		<path class="st4" d="M31.9,24.8c0-1.6,1.2-2.8,2.8-2.8c1.5,0,2.8,1.2,2.8,2.8c0,1.5-1.2,2.8-2.8,2.8
			C33.1,27.6,31.9,26.4,31.9,24.8z M32.7,35.2h4.1v30.4h-4.1V35.2z"/>
		<path class="st4" d="M44.2,50.4c0-9.4,6.3-15.7,15.6-15.7c3.9,0,7.1,1.1,9.8,3.3l-2.4,2.9c-2.2-1.8-4.5-2.6-7.5-2.6
			c-6.8,0-11.2,4.8-11.2,12.2c0,7.3,4.5,12.2,11.3,12.2c3.2,0,6.1-1.1,8.3-3.3l2.4,2.8c-2.8,2.6-6.6,4-11,4
			C50.4,66.1,44.2,59.8,44.2,50.4z"/>
		<path class="st4" d="M87.3,51.3h-6.1v14.2h-4.1V20.8h4.1v27.1h6.1l11.6-12.7h5.2L90.7,49.6l14.1,16h-5.3L87.3,51.3z"/>
		<path class="st4" d="M135,51.9h-24.2c0.5,6.6,4.1,10.9,10.1,10.9c4.1,0,7.5-2,9.8-5.2l3.2,1.8c-2.9,4.4-7.6,6.7-13,6.7
			c-8.7,0-14.5-6.3-14.5-15.8c0-9.4,5.7-15.7,14.4-15.7c8.5,0,14.3,6.1,14.3,15.4C135.1,50.5,135.1,51.4,135,51.9z M110.8,49h20
			c-0.3-6.8-4.1-11-10-11S111.2,42.2,110.8,49z"/>
		<path class="st4" d="M158.9,61.5v3.4c-2,0.9-4.5,1.3-7.3,1.3c-4.9,0-8.2-3.4-8.2-8.4V38.7h-5.3v-3.4h5.3v-8.9h4.1v8.9h11v3.4h-11
			V57c0,3.3,2.2,5.6,5.3,5.6C155,62.6,157,62.2,158.9,61.5z"/>
	</g>
	<g>
		
			<linearGradient id="SVGID_1_" gradientUnits="userSpaceOnUse" x1="175.829" y1="85.0666" x2="201.4576" y2="-33.7324" gradientTransform="matrix(1 0 0 1 0 -6)">
			<stop  offset="4.972039e-02" style="stop-color:#FDA228"/>
			<stop  offset="0.4385" style="stop-color:#FD394B"/>
			<stop  offset="0.623" style="stop-color:#F82647"/>
			<stop  offset="0.8151" style="stop-color:#F41945"/>
			<stop  offset="1" style="stop-color:#F31544"/>
		</linearGradient>
		<path class="st5" d="M206.7,14.5c-5.1-9.8-17-14.1-27.3-9.9c-11.5,4.8-16.4,18.1-11,29.1c0.2,0.4,0.4,0.8,0.6,1.1l2.6,5.5
			c1,1.9,2.9,3.2,5.1,3.2h14.6c1.1,0,1.7,1.1,1.2,2l-1,2c-0.1,0-0.1,0-0.2,0c-1.1,0-2.2,1-2.3,2.1c0,0.4,0.1,0.9,0.3,1.1
			c0.3,0.4,0.3,0.9,0.1,1.3l-0.8,1.7c-0.3,0.5-0.7,0.8-1.2,0.8h-6.7c-1.1,0-1.8,1.1-1.2,2l3,6.2c1.7,3.5,6.7,3.6,8.6,0.2l14.5-27
			C209.7,29.7,210.4,21.6,206.7,14.5z M187.5,34.2c-5.7,0-10.4-4.7-10.4-10.4s4.7-10.4,10.4-10.4c5.7,0,10.4,4.7,10.4,10.4
			S193.3,34.2,187.5,34.2z"/>
	</g>
	<g>
		
			<linearGradient id="SVGID_2_" gradientUnits="userSpaceOnUse" x1="176.4774" y1="85.2064" x2="202.1059" y2="-33.5926" gradientTransform="matrix(1 0 0 1 0 -6)">
			<stop  offset="4.972039e-02" style="stop-color:#FDA228"/>
			<stop  offset="0.4385" style="stop-color:#FD394B"/>
			<stop  offset="0.5356" style="stop-color:#FE2857"/>
			<stop  offset="0.694" style="stop-color:#FE1465"/>
			<stop  offset="0.8501" style="stop-color:#FF076E"/>
			<stop  offset="1" style="stop-color:#FF0371"/>
		</linearGradient>
		<path class="st6" d="M181.7,52.6l0.5,0.3c0.2,0.1,0.4,0,0.4-0.1l0.6-1.2c0.1-0.2,0-0.4-0.1-0.4l-0.5-0.3c-0.2-0.1-0.4,0-0.4,0.1
			l-0.6,1.2C181.4,52.3,181.5,52.5,181.7,52.6z"/>
		
			<linearGradient id="SVGID_3_" gradientUnits="userSpaceOnUse" x1="178.1123" y1="85.5592" x2="203.7409" y2="-33.2398" gradientTransform="matrix(1 0 0 1 0 -6)">
			<stop  offset="4.972039e-02" style="stop-color:#FDA228"/>
			<stop  offset="0.4385" style="stop-color:#FD394B"/>
			<stop  offset="0.5356" style="stop-color:#FE2857"/>
			<stop  offset="0.694" style="stop-color:#FE1465"/>
			<stop  offset="0.8501" style="stop-color:#FF076E"/>
			<stop  offset="1" style="stop-color:#FF0371"/>
		</linearGradient>
		<path class="st7" d="M184.7,46.5l0.5,0.3c0.2,0.1,0.4,0,0.4-0.1l0.6-1.2c0.1-0.2,0-0.4-0.1-0.4l-0.5-0.3c-0.2-0.1-0.4,0-0.4,0.1
			l-0.6,1.2C184.5,46.3,184.5,46.5,184.7,46.5z"/>
		
			<linearGradient id="SVGID_4_" gradientUnits="userSpaceOnUse" x1="177.3105" y1="85.3862" x2="202.939" y2="-33.4128" gradientTransform="matrix(1 0 0 1 0 -6)">
			<stop  offset="4.972039e-02" style="stop-color:#FDA228"/>
			<stop  offset="0.4385" style="stop-color:#FD394B"/>
			<stop  offset="0.5356" style="stop-color:#FE2857"/>
			<stop  offset="0.694" style="stop-color:#FE1465"/>
			<stop  offset="0.8501" style="stop-color:#FF076E"/>
			<stop  offset="1" style="stop-color:#FF0371"/>
		</linearGradient>
		<path class="st8" d="M183.2,49.6l0.5,0.3c0.2,0.1,0.4,0,0.4-0.1l0.6-1.2c0.1-0.2,0-0.4-0.1-0.4l-0.5-0.3c-0.2-0.1-0.4,0-0.4,0.1
			l-0.6,1.2C183,49.3,183,49.5,183.2,49.6z"/>
	</g>
</g>
</svg>
